<svg id="eE1OrJ2N5zT1" xmlns="http://www.w3.org/2000/svg" xmlns:xlink="http://www.w3.org/1999/xlink" viewBox="0 0 256 256" shape-rendering="geometricPrecision" text-rendering="geometricPrecision"><defs><radialGradient id="eE1OrJ2N5zT15-stroke" cx="0" cy="0" r="0.921877" spreadMethod="pad" gradientUnits="objectBoundingBox" gradientTransform="matrix(0.05723 -0.998361 0.979622 0.056156 0.342779 1.105039)"><stop id="eE1OrJ2N5zT15-stroke-0" offset="40%" stop-color="#1e40af"/><stop id="eE1OrJ2N5zT15-stroke-1" offset="100%" stop-color="#fff"/></radialGradient></defs><path d="M74.140228,-17.126659l39.667928-4.666816-39.667928,4.666816Z" fill="none" stroke="#3f5787" stroke-width="0.512"/><path d="M-48.363667,174.212758l94.503005,5.229485-19.833964,92.773633h-74.669041v-98.003118Z" fill="#38bdf8" stroke="#3f5787" stroke-width="0.512"/><path d="M62.473192,-11.876492L46.139338,179.552698l-94.503005-5.33994-4.666816-214.090141L62.473192,-11.876492Z" transform="translate(.000001 0)" fill="#3b82f6" stroke="#3f5787" stroke-width="0.512"/><path d="M172.454633,-39.877383L138.892288,70.376124L46.139337,179.387016L62.473191,-11.876492l109.981442-28.000891Z" transform="translate(.000001 0)" fill="#93c5fd" stroke="#3f5787" stroke-width="0.512"/><path d="M282.980202,-27.043641L172.454633,-39.877383L138.892288,69.754816L319.73137,135.128183L282.980202,-27.043641Z" transform="translate(.000001 0)" fill="#bfdbfe" stroke="#3f5787" stroke-width="0.512"/><path d="M172.454633,230.884487l147.276738-95.756304L138.892289,69.754816L46.139338,179.552698l126.315295,51.331789Z" fill="#38bdf8" stroke="#3f5787" stroke-width="0.512"/><path d="M207.144457,272.215877L319.731371,256v-120.871818L172.454633,230.884484l34.689824,41.331393Z" transform="translate(0 0.000004)" fill="#93c5fd" stroke="#3f5787" stroke-width="0.512"/><path d="M142.97575,272.215876l29.478883-41.33139L46.139337,179.442243L26.305373,272.215881l116.670377-.000005Z" transform="translate(.000001 0)" fill="#0ea5e9" stroke="#3f5787" stroke-width="0.512"/><path d="M207.144457,272.215881l-34.689822-41.331395-29.478884,41.331389l64.168706.000006Z" transform="translate(0 0.000003)" fill="#e0f2fe" stroke="#3f5787" stroke-width="0.512"/><polygon points="0,-102.884486 89.100579,-51.442243 89.100579,51.442243 0,102.884486 -89.100579,51.442243 -89.100579,-51.442243 0,-102.884486" transform="translate(128 128)" fill="#1e40af" stroke="#172554"/><polygon points="0,-102.939759 89.148446,51.469879 -89.148446,51.469879 0,-102.939759" transform="matrix(-.500805 0.86556-.86556-.500805 128 128)" fill="#1d4ed8" stroke="url(#eE1OrJ2N5zT15-stroke)"/></svg>
